{
  "accessors": [
    {
      "name": "Object15_1_0_positions",
      "componentType": 5126,
      "count": 20,
      "min": [
        189163.359375,
        2120.00048828125,
        -2424.911865234375
      ],
      "max": [
        190158.1875,
        2200.00146484375,
        -2422.913330078125
      ],
      "type": "VEC3",
      "bufferView": 0,
      "byteOffset": 0
    },
    {
      "name": "Object15_1_0_normals",
      "componentType": 5126,
      "count": 20,
      "min": [
        -1,
        -1,
        -0.00019999999494757503
      ],
      "max": [
        1,
        1,
        1
      ],
      "type": "VEC3",
      "bufferView": 1,
      "byteOffset": 0
    },
    {
      "name": "Object15_1_0_texcoords",
      "componentType": 5126,
      "count": 20,
      "min": [
        0,
        0
      ],
      "max": [
        1,
        0.03240000084042549
      ],
      "type": "VEC2",
      "bufferView": 2,
      "byteOffset": 0
    },
    {
      "name": "Object15_1_0_indices",
      "componentType": 5123,
      "count": 30,
      "min": [
        0
      ],
      "max": [
        19
      ],
      "type": "SCALAR",
      "bufferView": 3,
      "byteOffset": 0
    },
    {
      "name": "Obj3d66_1138023_275_725_1_0_positions",
      "componentType": 5126,
      "count": 64,
      "min": [
        189341.953125,
        1388.9814453125,
        -2449.912109375
      ],
      "max": [
        189982.75,
        1555.02294921875,
        -2446.232177734375
      ],
      "type": "VEC3",
      "bufferView": 0,
      "byteOffset": 240
    },
    {
      "name": "Obj3d66_1138023_275_725_1_0_normals",
      "componentType": 5126,
      "count": 64,
      "min": [
        -1,
        -1,
        0
      ],
      "max": [
        1,
        1,
        1
      ],
      "type": "VEC3",
      "bufferView": 1,
      "byteOffset": 240
    },
    {
      "name": "Obj3d66_1138023_275_725_1_0_texcoords",
      "componentType": 5126,
      "count": 64,
      "min": [
        0,
        0
      ],
      "max": [
        1,
        1
      ],
      "type": "VEC2",
      "bufferView": 2,
      "byteOffset": 160
    },
    {
      "name": "Obj3d66_1138023_275_725_1_0_indices",
      "componentType": 5123,
      "count": 102,
      "min": [
        0
      ],
      "max": [
        63
      ],
      "type": "SCALAR",
      "bufferView": 3,
      "byteOffset": 60
    },
    {
      "name": "Rectangle9209_1_0_positions",
      "componentType": 5126,
      "count": 192,
      "min": [
        189565.234375,
        1426.714599609375,
        -2449.06787109375
      ],
      "max": [
        189678.59375,
        1456.9974365234375,
        -2447.7001953125
      ],
      "type": "VEC3",
      "bufferView": 0,
      "byteOffset": 1008
    },
    {
      "name": "Rectangle9209_1_0_normals",
      "componentType": 5126,
      "count": 192,
      "min": [
        -1,
        -1,
        -1
      ],
      "max": [
        1,
        1,
        1
      ],
      "type": "VEC3",
      "bufferView": 1,
      "byteOffset": 1008
    },
    {
      "name": "Rectangle9209_1_0_texcoords",
      "componentType": 5126,
      "count": 192,
      "min": [
        0,
        0
      ],
      "max": [
        1,
        1
      ],
      "type": "VEC2",
      "bufferView": 2,
      "byteOffset": 672
    },
    {
      "name": "Rectangle9209_1_0_indices",
      "componentType": 5123,
      "count": 288,
      "min": [
        0
      ],
      "max": [
        191
      ],
      "type": "SCALAR",
      "bufferView": 3,
      "byteOffset": 264
    },
    {
      "name": "Rectangle9210_1_0_positions",
      "componentType": 5126,
      "count": 96,
      "min": [
        189563.765625,
        1404.611572265625,
        -2449.06787109375
      ],
      "max": [
        189670.578125,
        1416.8936767578125,
        -2447.7001953125
      ],
      "type": "VEC3",
      "bufferView": 0,
      "byteOffset": 3312
    },
    {
      "name": "Rectangle9210_1_0_normals",
      "componentType": 5126,
      "count": 96,
      "min": [
        -1,
        -1,
        -1
      ],
      "max": [
        1,
        1,
        1
      ],
      "type": "VEC3",
      "bufferView": 1,
      "byteOffset": 3312
    },
    {
      "name": "Rectangle9210_1_0_texcoords",
      "componentType": 5126,
      "count": 96,
      "min": [
        0,
        0
      ],
      "max": [
        1,
        1
      ],
      "type": "VEC2",
      "bufferView": 2,
      "byteOffset": 2208
    },
    {
      "name": "Rectangle9210_1_0_indices",
      "componentType": 5123,
      "count": 144,
      "min": [
        0
      ],
      "max": [
        95
      ],
      "type": "SCALAR",
      "bufferView": 3,
      "byteOffset": 840
    },
    {
      "name": "Obj3d66_1138023_273_498_1_0_positions",
      "componentType": 5126,
      "count": 54,
      "min": [
        189530.671875,
        1472.4765625,
        -2449.073486328125
      ],
      "max": [
        189654.15625,
        1530.500244140625,
        -2447.556884765625
      ],
      "type": "VEC3",
      "bufferView": 0,
      "byteOffset": 4464
    },
    {
      "name": "Obj3d66_1138023_273_498_1_0_normals",
      "componentType": 5126,
      "count": 54,
      "min": [
        -1,
        -1,
        -1
      ],
      "max": [
        1,
        1,
        1
      ],
      "type": "VEC3",
      "bufferView": 1,
      "byteOffset": 4464
    },
    {
      "name": "Obj3d66_1138023_273_498_1_0_texcoords",
      "componentType": 5126,
      "count": 54,
      "min": [
        0,
        0
      ],
      "max": [
        1,
        1
      ],
      "type": "VEC2",
      "bufferView": 2,
      "byteOffset": 2976
    },
    {
      "name": "Obj3d66_1138023_273_498_1_0_indices",
      "componentType": 5123,
      "count": 84,
      "min": [
        0
      ],
      "max": [
        53
      ],
      "type": "SCALAR",
      "bufferView": 3,
      "byteOffset": 1128
    },
    {
      "name": "Rectangle9217_1_0_positions",
      "componentType": 5126,
      "count": 138,
      "min": [
        189163.34375,
        -0.004000000189989805,
        -3149.91259765625
      ],
      "max": [
        190158.171875,
        2200.00146484375,
        -2424.911376953125
      ],
      "type": "VEC3",
      "bufferView": 0,
      "byteOffset": 5112
    },
    {
      "name": "Rectangle9217_1_0_normals",
      "componentType": 5126,
      "count": 138,
      "min": [
        -1,
        -1,
        -1
      ],
      "max": [
        1,
        1,
        1
      ],
      "type": "VEC3",
      "bufferView": 1,
      "byteOffset": 5112
    },
    {
      "name": "Rectangle9217_1_0_texcoords",
      "componentType": 5126,
      "count": 138,
      "min": [
        0,
        0
      ],
      "max": [
        1,
        1
      ],
      "type": "VEC2",
      "bufferView": 2,
      "byteOffset": 3408
    },
    {
      "name": "Rectangle9217_1_0_indices",
      "componentType": 5123,
      "count": 264,
      "min": [
        0
      ],
      "max": [
        137
      ],
      "type": "SCALAR",
      "bufferView": 3,
      "byteOffset": 1296
    },
    {
      "name": "Obj3d66_1138023_273_499_1_0_positions",
      "componentType": 5126,
      "count": 54,
      "min": [
        189791.9375,
        1442.051513671875,
        -2449.073486328125
      ],
      "max": [
        189915.421875,
        1500.0751953125,
        -2447.556884765625
      ],
      "type": "VEC3",
      "bufferView": 0,
      "byteOffset": 6768
    },
    {
      "name": "Obj3d66_1138023_273_499_1_0_normals",
      "componentType": 5126,
      "count": 54,
      "min": [
        -1,
        -1,
        -1
      ],
      "max": [
        1,
        1,
        1
      ],
      "type": "VEC3",
      "bufferView": 1,
      "byteOffset": 6768
    },
    {
      "name": "Obj3d66_1138023_273_499_1_0_texcoords",
      "componentType": 5126,
      "count": 54,
      "min": [
        0,
        0
      ],
      "max": [
        1,
        1
      ],
      "type": "VEC2",
      "bufferView": 2,
      "byteOffset": 4512
    },
    {
      "name": "Obj3d66_1138023_273_499_1_0_indices",
      "componentType": 5123,
      "count": 84,
      "min": [
        0
      ],
      "max": [
        53
      ],
      "type": "SCALAR",
      "bufferView": 3,
      "byteOffset": 1824
    }
  ],
  "asset": {
    "generator": "obj2gltf",
    "version": "2.0"
  },
  "buffers": [
    {
      "name": "2-5",
      "byteLength": 21768,
      "uri": "data:application/octet-stream;base64,"
    }
  ],
  "bufferViews": [
    {
      "name": "bufferView_0",
      "buffer": 0,
      "byteLength": 7416,
      "byteOffset": 0,
      "byteStride": 12,
      "target": 34962
    },
    {
      "name": "bufferView_1",
      "buffer": 0,
      "byteLength": 7416,
      "byteOffset": 7416,
      "byteStride": 12,
      "target": 34962
    },
    {
      "name": "bufferView_2",
      "buffer": 0,
      "byteLength": 4944,
      "byteOffset": 14832,
      "byteStride": 8,
      "target": 34962
    },
    {
      "name": "bufferView_3",
      "buffer": 0,
      "byteLength": 1992,
      "byteOffset": 19776,
      "target": 34963
    }
  ],
  "materials": [
    {
      "name": "wire_165162176",
      "pbrMetallicRoughness": {
        "baseColorFactor": [
          0.6471,
          0.6353,
          0.6902,
          1
        ],
        "metallicFactor": 0,
        "roughnessFactor": 0.968
      },
      "emissiveFactor": [
        0,
        0,
        0
      ],
      "alphaMode": "OPAQUE",
      "doubleSided": false
    },
    {
      "name": "wire_255255255",
      "pbrMetallicRoughness": {
        "baseColorFactor": [
          1,
          1,
          1,
          1
        ],
        "metallicFactor": 0,
        "roughnessFactor": 0.968
      },
      "emissiveFactor": [
        0,
        0,
        0
      ],
      "alphaMode": "OPAQUE",
      "doubleSided": false
    },
    {
      "name": "wire_012012012",
      "pbrMetallicRoughness": {
        "baseColorFactor": [
          0.0471,
          0.0471,
          0.0471,
          1
        ],
        "metallicFactor": 0,
        "roughnessFactor": 0.968
      },
      "emissiveFactor": [
        0,
        0,
        0
      ],
      "alphaMode": "OPAQUE",
      "doubleSided": false
    }
  ],
  "meshes": [
    {
      "name": "Object15_1",
      "primitives": [
        {
          "attributes": {
            "POSITION": 0,
            "NORMAL": 1,
            "TEXCOORD_0": 2
          },
          "indices": 3,
          "material": 0,
          "mode": 4
        }
      ]
    },
    {
      "name": "Obj3d66_1138023_275_725_1",
      "primitives": [
        {
          "attributes": {
            "POSITION": 4,
            "NORMAL": 5,
            "TEXCOORD_0": 6
          },
          "indices": 7,
          "material": 1,
          "mode": 4
        }
      ]
    },
    {
      "name": "Rectangle9209_1",
      "primitives": [
        {
          "attributes": {
            "POSITION": 8,
            "NORMAL": 9,
            "TEXCOORD_0": 10
          },
          "indices": 11,
          "material": 2,
          "mode": 4
        }
      ]
    },
    {
      "name": "Rectangle9210_1",
      "primitives": [
        {
          "attributes": {
            "POSITION": 12,
            "NORMAL": 13,
            "TEXCOORD_0": 14
          },
          "indices": 15,
          "material": 2,
          "mode": 4
        }
      ]
    },
    {
      "name": "Obj3d66_1138023_273_498_1",
      "primitives": [
        {
          "attributes": {
            "POSITION": 16,
            "NORMAL": 17,
            "TEXCOORD_0": 18
          },
          "indices": 19,
          "material": 2,
          "mode": 4
        }
      ]
    },
    {
      "name": "Rectangle9217_1",
      "primitives": [
        {
          "attributes": {
            "POSITION": 20,
            "NORMAL": 21,
            "TEXCOORD_0": 22
          },
          "indices": 23,
          "material": 0,
          "mode": 4
        }
      ]
    },
    {
      "name": "Obj3d66_1138023_273_499_1",
      "primitives": [
        {
          "attributes": {
            "POSITION": 24,
            "NORMAL": 25,
            "TEXCOORD_0": 26
          },
          "indices": 27,
          "material": 2,
          "mode": 4
        }
      ]
    }
  ],
  "nodes": [
    {
      "name": "Object15",
      "mesh": 0
    },
    {
      "name": "Obj3d66_1138023_275_725",
      "mesh": 1
    },
    {
      "name": "Rectangle9209",
      "mesh": 2
    },
    {
      "name": "Rectangle9210",
      "mesh": 3
    },
    {
      "name": "Obj3d66_1138023_273_498",
      "mesh": 4
    },
    {
      "name": "Rectangle9217",
      "mesh": 5
    },
    {
      "name": "Obj3d66_1138023_273_499",
      "mesh": 6
    }
  ],
  "scene": 0,
  "scenes": [
    {
      "nodes": [
        0,
        1,
        2,
        3,
        4,
        5,
        6
      ]
    }
  ]
}
